<?xml version="1.0" encoding="UTF-8" standalone="no"?>
<!-- Created with Inkscape (http://www.inkscape.org/) -->

<svg
   width="209.37286mm"
   height="209.37286mm"
   viewBox="0 0 209.37286 209.37286"
   version="1.1"
   id="svg1"
   xml:space="preserve"
   xmlns:inkscape="http://www.inkscape.org/namespaces/inkscape"
   xmlns:sodipodi="http://sodipodi.sourceforge.net/DTD/sodipodi-0.dtd"
   xmlns="http://www.w3.org/2000/svg"
   xmlns:svg="http://www.w3.org/2000/svg"><sodipodi:namedview
     id="namedview1"
     pagecolor="#ffffff"
     bordercolor="#000000"
     borderopacity="0.25"
     inkscape:showpageshadow="2"
     inkscape:pageopacity="0.0"
     inkscape:pagecheckerboard="0"
     inkscape:deskcolor="#d1d1d1"
     inkscape:document-units="mm"
     inkscape:export-bgcolor="#ffffffff" /><defs
     id="defs1" /><g
     inkscape:label="Capa 1"
     inkscape:groupmode="layer"
     id="layer1"
     transform="translate(-1.2545296,-46.553427)"><path
       style="fill:#000000"
       d="M 1.2545297,151.23986 V 46.553429 H 105.94096 210.6274 V 151.23986 255.92629 H 105.94096 1.2545297 Z M 33.6957,203.95806 c 0.82098,-0.78904 0.82051,-0.79373 -0.08,-0.79373 -0.49821,0 -1.0223,0.18844 -1.16464,0.41875 -0.38176,0.6177 -1.31503,0.50949 -2.06381,-0.23928 -1.11526,-1.11526 -0.74809,-1.4357 1.64507,-1.4357 2.11747,0 2.3031,-0.0769 2.3031,-0.95369 0,-1.64449 -1.14166,-2.81503 -2.74559,-2.81503 -1.91243,0 -3.11685,1.22424 -3.11685,3.16813 0,3.52497 2.82247,4.9574 5.22269,2.65055 z m -3.96646,-3.2413 c 0,-0.38984 1.3833,-1.73988 1.78273,-1.73988 0.39576,0 1.56724,1.27437 1.56724,1.70489 0,0.21386 -0.75374,0.38883 -1.67498,0.38883 -0.92124,0 -1.67499,-0.15923 -1.67499,-0.35384 z m 9.79779,4.06584 c 2.1478,-0.97861 1.83551,-2.34523 -0.83206,-3.64123 -1.03963,-0.5051 -1.77518,-1.10452 -1.63456,-1.33205 0.34443,-0.5573 2.18042,-0.52718 2.53191,0.0415 0.1956,0.31649 0.41468,0.3219 0.71883,0.0177 0.83272,-0.83272 -0.5162,-1.78216 -2.33751,-1.64526 -3.10502,0.23339 -3.18567,2.33255 -0.14572,3.79274 0.84286,0.40485 1.53248,0.92896 1.53248,1.16469 0,0.78736 -1.25105,0.92077 -2.2845,0.24363 -0.62673,-0.41064 -1.12075,-0.5094 -1.27772,-0.25541 -0.35293,0.57104 0.12658,1.24113 1.19728,1.67313 1.21414,0.48988 1.33184,0.48711 2.53157,-0.0595 z m 6.84736,0.0152 c 0.8877,0.0303 0.94217,-0.13222 0.94217,-2.81065 0,-1.65272 -0.21035,-3.05313 -0.50249,-3.34527 -0.71713,-0.71713 -3.47998,-0.62593 -4.11211,0.13574 -0.74311,0.8954 -0.19147,1.26224 1.04853,0.69726 0.57402,-0.26154 1.32856,-0.36621 1.67676,-0.23259 1.18549,0.45492 0.63284,1.19888 -1.35816,1.82831 -1.64384,0.51968 -2.00905,0.81994 -2.11544,1.73918 -0.15582,1.34628 1.35962,2.61894 2.64107,2.21796 0.46062,-0.14414 1.26147,-0.24761 1.77967,-0.22994 z m -2.79961,-1.18922 c -0.8038,-0.50862 0.0186,-1.5315 1.45147,-1.80542 0.79426,-0.15183 1.03408,-0.0203 1.03408,0.56702 0,0.42058 -0.36449,0.95975 -0.80997,1.19817 -0.9686,0.51838 -0.92172,0.51725 -1.67558,0.0402 z m 20.17755,0.48819 c 0.93074,-0.8173 0.9779,-3.74614 0.0809,-5.02672 -0.85217,-1.21664 -3.1996,-1.26666 -4.37308,-0.0932 -0.92698,0.92698 -1.12523,3.28613 -0.39137,4.65735 0.87636,1.6375 3.09585,1.85669 4.68351,0.46254 z m -3.21537,-0.75297 c -1.29671,-1.29672 -0.49334,-3.94818 1.19626,-3.94818 1.0452,0 1.49568,0.69498 1.49568,2.30744 0,0.96628 -0.97091,2.29876 -1.67498,2.29876 -0.19741,0 -0.65504,-0.29611 -1.01696,-0.65802 z m 16.82461,1.4183 c 0.8808,0.0634 0.94218,-0.0973 0.94218,-2.46748 0,-3.38454 -0.45389,-4.15524 -2.44717,-4.15524 -1.59727,0 -3.45068,0.94167 -2.91256,1.47979 0.16062,0.16062 0.89485,0.0819 1.63163,-0.17496 0.98756,-0.34427 1.48838,-0.34351 1.90573,0.003 0.90218,0.74874 0.67179,1.07806 -0.93684,1.33911 -1.98081,0.32144 -2.68449,0.9618 -2.68449,2.44292 0,1.35887 1.26215,2.15489 2.72185,1.71661 0.46062,-0.1383 1.26147,-0.22092 1.77967,-0.18361 z m -3.10465,-1.41654 c -0.31004,-0.80796 0.13993,-1.24742 1.63904,-1.60075 1.3317,-0.31388 1.58516,0.50734 0.49352,1.59899 -0.8417,0.8417 -1.80994,0.8425 -2.13256,0.002 z m 10.44649,1.44562 c 1.16533,0.0635 1.16533,0.0635 1.04686,-4.65505 -0.097,-3.86249 -0.23243,-4.71859 -0.74659,-4.71859 -0.41668,0 -0.67013,0.49951 -0.75293,1.48386 -0.11815,1.40471 -0.19678,1.47546 -1.4741,1.32634 -2.93962,-0.34318 -4.21752,3.96811 -1.79406,6.05268 0.75934,0.65316 1.44205,0.92161 1.87484,0.73722 0.37435,-0.1595 1.20504,-0.26141 1.84598,-0.22646 z m -3.02544,-1.38825 c -0.27337,-0.32939 -0.43777,-1.31868 -0.36534,-2.19842 0.12095,-1.46881 0.23437,-1.59952 1.38795,-1.59952 1.15358,0 1.267,0.13071 1.38794,1.59952 0.13432,1.63127 -0.44424,2.79731 -1.38794,2.79731 -0.28907,0 -0.74924,-0.2695 -1.02261,-0.59889 z m 9.75039,1.39021 c 3.11284,-1.4183 2.17622,-6.65376 -1.19036,-6.65376 -3.28281,0 -4.30863,5.17848 -1.31315,6.62892 1.17568,0.56928 1.30577,0.57057 2.50351,0.0248 z m -2.15347,-1.29381 c -0.79735,-0.79734 -0.63143,-3.58649 0.24112,-4.05347 1.23987,-0.66356 2.1876,0.19448 2.1876,1.98055 0,1.55737 -0.57934,2.57541 -1.46561,2.57541 -0.25334,0 -0.68674,-0.22612 -0.96311,-0.50249 z m 29.20352,0.6769 c 0.91947,-0.87376 0.21234,-1.19113 -1.27826,-0.5737 -1.23497,0.51154 -1.38915,0.47815 -2.15686,-0.46707 -0.82682,-1.01799 -0.82682,-1.01799 1.77548,-1.1437 2.59711,-0.12546 2.60173,-0.12796 2.32018,-1.25624 -0.68383,-2.74031 -3.57802,-3.56934 -5.21142,-1.4928 -2.60429,3.31081 1.53566,7.79883 4.55088,4.93351 z m -3.74379,-3.71294 c 0,-0.89247 1.29538,-1.49493 2.18761,-1.01743 1.30573,0.69881 0.89427,1.62474 -0.722,1.62474 -1.00128,0 -1.46561,-0.1924 -1.46561,-0.60731 z m 10.69705,3.76694 c 1.22841,-1.22841 1.39172,-3.71 0.34271,-5.20767 -0.57499,-0.82091 -0.94523,-0.94327 -2.3031,-0.76114 -1.61798,0.21702 -1.61798,0.21702 -1.61798,-1.45301 0,-1.14951 -0.16315,-1.6159 -0.52343,-1.49634 -0.367,0.12179 -0.55874,1.56314 -0.64157,4.82285 -0.11815,4.64915 -0.11815,4.64915 1.15744,4.61288 0.70158,-0.0199 1.39857,0.0867 1.54886,0.237 0.48287,0.48287 0.98601,0.29649 2.03707,-0.75457 z m -2.6246,-0.75184 c -1.12183,-1.44982 -0.87195,-3.70319 0.46765,-4.21724 1.59968,-0.61386 2.63623,2.71693 1.27052,4.08265 -0.79476,0.79476 -1.2029,0.82636 -1.73817,0.13459 z m 19.87883,1.29957 c 0.90279,0.0498 0.94218,-0.0879 0.94218,-3.2933 0,-2.69441 -0.12221,-3.34528 -0.62812,-3.34528 -0.48708,0 -0.62812,0.55264 -0.62812,2.46121 0,2.5835 -0.65713,3.72074 -1.87902,3.25185 -0.47597,-0.18265 -0.63345,-0.92302 -0.63345,-2.97807 0,-2.15193 -0.13391,-2.73499 -0.62812,-2.73499 -0.49802,0 -0.62812,0.60222 -0.62812,2.90748 0,2.53756 0.11947,2.99116 0.93901,3.56518 0.51646,0.36174 1.22309,0.53537 1.5703,0.38583 0.34721,-0.14953 1.05526,-0.24849 1.57346,-0.21991 z m 22.42873,-0.23794 c 0.18694,-0.11044 0.52171,-0.67902 0.74393,-1.26351 0.57072,-1.50113 -0.39288,-2.79022 -2.76205,-3.69501 -1.53475,-0.58613 -1.89711,-0.91109 -1.79706,-1.61157 0.15265,-1.06876 1.71385,-1.38663 3.11841,-0.63493 1.29214,0.69154 1.73856,0.19343 0.77795,-0.86803 -1.02885,-1.13687 -3.68219,-1.13828 -4.8179,-0.003 -1.64727,1.64727 -0.84772,3.11075 2.40779,4.40717 1.96902,0.78412 2.37063,1.94703 0.93731,2.71411 -0.64211,0.34365 -1.19317,0.28435 -2.31808,-0.24945 -1.64059,-0.77852 -2.28441,-0.55428 -1.41529,0.49294 1.06295,1.28078 3.57141,1.62871 5.12499,0.71085 z m 11.48968,0.22208 c 0.88244,0.0635 0.94217,-0.0957 0.94217,-2.51166 0,-3.03481 -0.70859,-4.11106 -2.70671,-4.11106 -1.53512,0 -2.99763,0.91448 -2.56975,1.60681 0.21351,0.34545 0.5625,0.30246 1.26121,-0.15535 1.02694,-0.67287 2.13894,-0.48639 2.48553,0.41683 0.14215,0.37043 -0.31872,0.63185 -1.42607,0.80892 -2.72752,0.43615 -3.72381,3.13358 -1.48748,4.02732 0.48617,0.19429 1.26081,0.24011 1.72143,0.1018 0.46062,-0.1383 1.26147,-0.22092 1.77967,-0.18361 z m -3.10465,-1.41654 c -0.31005,-0.80796 0.13993,-1.24742 1.63904,-1.60075 1.33169,-0.31388 1.58516,0.50734 0.49352,1.59899 -0.84171,0.8417 -1.80994,0.8425 -2.13256,0.002 z m 10.09203,1.02113 c 0.78986,-0.6213 1.00028,-1.0243 0.69448,-1.3301 -0.30579,-0.30579 -0.70288,-0.19964 -1.31061,0.35034 -1.24852,1.1299 -2.25297,0.37794 -2.41593,-1.80863 -0.10112,-1.35683 0.0442,-1.80199 0.70372,-2.15493 0.63255,-0.33853 0.98108,-0.29493 1.45846,0.18245 0.77191,0.77191 1.52461,0.81285 1.52461,0.0829 0,-0.92771 -0.94548,-1.54936 -2.35646,-1.54936 -3.23375,0 -4.22104,5.19506 -1.2598,6.62892 1.31521,0.63684 1.70929,0.58339 2.96153,-0.40161 z m -157.59895,-0.7514 c 0.94607,-0.94606 1.22403,-1.60552 1.22403,-2.90396 0,-3.45055 -1.60808,-5.08442 -5.00415,-5.08442 -1.69578,0 -1.69578,0 -1.69578,4.6062 0,4.60621 0,4.60621 2.12594,4.60621 1.79139,0 2.31855,-0.19262 3.34996,-1.22403 z m -4.21967,-3.38218 c 0,-3.25271 0.029,-3.34996 1.00048,-3.34996 2.57095,0 4.02634,3.42618 2.35692,5.54851 -0.61952,0.78759 -1.29305,1.15142 -2.13155,1.15142 -1.22585,0 -1.22585,0 -1.22585,-3.34997 z m 28.89346,2.54673 c 0,-2.70836 0.30164,-3.38422 1.51041,-3.38422 0.60045,0 1.00206,-0.24561 1.00206,-0.61283 0,-0.45277 -0.49219,-0.60296 -1.88435,-0.57502 -1.88436,0.0378 -1.88436,0.0378 -1.88436,3.33469 0,2.65137 0.12298,3.29686 0.62812,3.29686 0.47319,0 0.62812,-0.508 0.62812,-2.05948 z m 5.10965,-0.55768 c 0.11948,-2.5082 0.17262,-2.62268 1.27622,-2.74967 0.65152,-0.075 1.15155,-0.38989 1.15155,-0.72526 0,-0.43845 -0.54508,-0.58049 -2.09373,-0.5456 -2.09372,0.0472 -2.09372,0.0472 -2.09372,3.34243 0,2.98924 0.0759,3.29526 0.81751,3.29526 0.71035,0 0.83385,-0.34306 0.94217,-2.61716 z m 11.93135,-2.09373 c -0.0672,-3.87194 -0.19366,-4.71089 -0.70992,-4.71089 -0.51409,0 -0.64961,0.85522 -0.74652,4.71089 -0.11195,4.45423 -0.0733,4.71089 0.70992,4.71089 0.78102,0 0.82364,-0.26899 0.74652,-4.71089 z m 3.38657,0.0341 c -0.0831,-3.28165 -0.27455,-4.72859 -0.64183,-4.85048 -0.39862,-0.13228 -0.52344,0.98292 -0.52344,4.67677 0,4.07843 0.10216,4.85048 0.64184,4.85048 0.54537,0 0.62403,-0.7029 0.52343,-4.67677 z m 25.30042,2.05961 c 0.11948,-2.5082 0.17261,-2.62268 1.27622,-2.74967 0.65151,-0.075 1.15155,-0.38989 1.15155,-0.72526 0,-0.43845 -0.54508,-0.58049 -2.09373,-0.5456 -2.09373,0.0472 -2.09373,0.0472 -2.09373,3.34243 0,2.98924 0.0759,3.29526 0.81751,3.29526 0.71035,0 0.83385,-0.34306 0.94218,-2.61716 z m 10.17575,-0.8375 c 0.75044,-3.45465 0.75044,-3.45465 1.55891,0 0.65086,2.78119 0.95855,3.45466 1.57834,3.45466 0.62743,0 0.93522,-0.71664 1.66359,-3.8734 0.49154,-2.13037 0.99103,-4.20316 1.10997,-4.6062 0.15454,-0.52369 -0.0199,-0.73281 -0.61143,-0.73281 -0.69619,0 -0.91143,0.46864 -1.35488,2.95003 -0.28996,1.62252 -0.66376,3.03443 -0.83067,3.13759 -0.16691,0.10315 -0.54598,-1.03254 -0.84239,-2.52377 -0.29641,-1.49123 -0.67445,-2.9306 -0.84008,-3.19861 -0.66802,-1.08088 -1.55068,0.0725 -2.03998,2.66574 -0.74168,3.93076 -1.05366,4.02572 -1.64593,0.50097 -0.33795,-2.01127 -0.75548,-3.24962 -1.14622,-3.39956 -1.00095,-0.3841 -1.04741,0.0158 -0.35454,3.05135 1.26878,5.55881 1.44368,6.02867 2.24408,6.02867 0.61309,0 0.90646,-0.67066 1.51123,-3.45466 z m 26.58917,1.59438 c 0,-1.86028 0,-1.86028 1.74712,-1.98904 2.4984,-0.18414 2.64357,-1.17563 0.17213,-1.17563 -1.91427,0 -1.91925,-0.004 -1.91925,-1.46561 0,-1.46561 0,-1.46561 2.09373,-1.46561 1.58192,0 2.09372,-0.15354 2.09372,-0.62812 0,-0.49851 -0.60485,-0.62812 -2.93122,-0.62812 -2.93122,0 -2.93122,0 -2.93122,4.6062 0,4.32704 0.0508,4.60621 0.8375,4.60621 0.71181,0 0.83749,-0.27917 0.83749,-1.86028 z m 13.81861,-2.9902 c 0,-3.69385 -0.12482,-4.80905 -0.52344,-4.67677 -0.36728,0.12189 -0.55875,1.56883 -0.64183,4.85048 -0.10061,3.97387 -0.0219,4.67677 0.52343,4.67677 0.53968,0 0.64184,-0.77205 0.64184,-4.85048 z m 3.67774,0.13959 c -0.0969,-3.85567 -0.23243,-4.71089 -0.74652,-4.71089 -0.51626,0 -0.64269,0.83895 -0.70992,4.71089 -0.0771,4.4419 -0.0345,4.71089 0.74652,4.71089 0.78319,0 0.82187,-0.25666 0.70992,-4.71089 z m 20.19076,4.13161 c 0,-0.31861 -0.37687,-0.67784 -0.83749,-0.79829 -0.68416,-0.17891 -0.83749,-0.57118 -0.83749,-2.14257 0,-1.64439 0.12154,-1.92356 0.83749,-1.92356 0.46527,0 0.83749,-0.27916 0.83749,-0.62812 0,-0.34895 -0.37222,-0.62812 -0.83749,-0.62812 -0.61416,0 -0.83749,-0.27916 -0.83749,-1.04686 0,-0.65138 -0.23729,-1.04686 -0.62812,-1.04686 -0.36263,0 -0.62812,0.37872 -0.62812,0.89601 0,0.49281 -0.32976,1.13887 -0.7328,1.4357 -0.69791,0.51399 -0.69791,0.55322 0,0.82377 0.56736,0.21995 0.7328,0.77502 0.7328,2.45864 0,1.196 0.22612,2.40067 0.5025,2.67704 0.69171,0.69171 2.42872,0.6368 2.42872,-0.0768 z m 16.33109,-0.41632 c 0,-0.54757 0.24445,-1.19846 0.54322,-1.44642 0.41514,-0.34454 0.72689,-0.1098 1.32218,0.99559 0.45464,0.84421 1.10018,1.44643 1.5505,1.44643 0.99873,0 0.97654,-0.16151 -0.27531,-2.00378 -1.2652,-1.8619 -1.29049,-2.25215 -0.20937,-3.23055 0.46062,-0.41685 0.83749,-0.91715 0.83749,-1.11176 0,-0.74011 -1.05895,-0.30349 -2.38786,0.98454 -1.38085,1.33838 -1.38085,1.33838 -1.38085,-1.46561 0,-2.21328 -0.13233,-2.804 -0.62812,-2.804 -0.52192,0 -0.62812,0.81423 -0.62812,4.81558 0,4.00135 0.1062,4.81558 0.62812,4.81558 0.3822,0 0.62812,-0.38979 0.62812,-0.9956 z m -28.89346,-3.40123 c 0,-0.49851 -0.60485,-0.62812 -2.93122,-0.62812 -2.32636,0 -2.93122,0.12961 -2.93122,0.62812 0,0.4985 0.60486,0.62811 2.93122,0.62811 2.32637,0 2.93122,-0.12961 2.93122,-0.62811 z M 54.99508,183.92799 c 0.56821,-0.21603 1.52266,-0.92074 2.12099,-1.56602 1.08788,-1.17323 1.08788,-1.17323 1.08788,0.18341 0,1.07749 0.17234,1.35665 0.83749,1.35665 0.81756,0 0.8375,-0.27916 0.8375,-11.72488 0,-11.44572 -0.0199,-11.72488 -0.8375,-11.72488 -0.79057,0 -0.83749,0.27916 -0.83749,4.98307 0,4.98308 0,4.98308 -1.39905,3.58402 -2.45912,-2.45911 -5.52978,-2.44783 -8.00703,0.0294 -1.68392,1.68392 -2.31675,3.63305 -2.30727,7.10645 0.0156,5.72934 4.08846,9.45173 8.50448,7.77276 z m -4.85169,-2.43375 c -1.47081,-1.54175 -1.98933,-3.05313 -1.98933,-5.79846 0,-4.16002 1.96707,-6.8686 4.98824,-6.8686 1.97783,0 3.28823,0.95087 4.26028,3.09139 1.46171,3.2188 0.79284,7.86152 -1.3982,9.70516 -1.75742,1.47878 -4.38204,1.42079 -5.86099,-0.12949 z m 24.80968,1.57081 c 4.12156,-2.93481 4.164,-11.69209 0.0708,-14.60671 -1.58639,-1.12961 -4.21672,-1.52276 -6.07801,-0.90848 -6.19951,2.04602 -6.5377,13.40004 -0.48263,16.20298 1.76259,0.81592 4.83542,0.49026 6.48984,-0.68779 z m -5.26767,-0.48526 c -4.21019,-1.1097 -5.34172,-8.94053 -1.80318,-12.47906 1.02291,-1.02292 1.62693,-1.27355 3.06922,-1.27355 3.33273,0 5.39942,2.64447 5.4096,6.92197 0.0116,4.88723 -2.86841,7.83414 -6.67564,6.83064 z m 83.02314,1.2956 c 0.64835,-0.24496 1.69701,-0.93974 2.33036,-1.54395 1.15155,-1.09857 1.15155,-1.09857 1.15155,0.26671 0,1.07468 0.15598,1.33536 0.73281,1.22467 0.64985,-0.12471 0.74526,-0.80363 0.84285,-5.99783 0.0924,-4.91958 -0.008,-6.08707 -0.62812,-7.29306 -1.94573,-3.78472 -6.98404,-4.45581 -10.60133,-1.41207 -1.00881,0.84886 -1.15995,1.17586 -0.764,1.65295 0.42122,0.50754 0.62253,0.47757 1.37292,-0.20437 1.43065,-1.30014 2.59526,-1.74126 4.59716,-1.74126 2.27436,0 3.90289,1.22236 4.28539,3.21659 0.28379,1.47956 0.17135,1.5349 -5.36023,2.63817 -3.02795,0.60393 -4.96885,1.91194 -5.7043,3.84427 -0.50871,1.33657 -0.49427,1.69783 0.11954,2.99134 1.14978,2.42299 4.61614,3.49482 7.6254,2.35784 z m -3.76822,-1.2532 c -1.8292,-0.5232 -2.38102,-1.2019 -2.38102,-2.9285 0,-2.05296 1.2937,-3.11923 4.52696,-3.73114 1.31029,-0.24798 2.99476,-0.61819 3.74327,-0.8227 1.36092,-0.37184 1.36092,-0.37184 1.36027,1.36864 -0.002,4.22105 -3.51308,7.1824 -7.24948,6.1137 z m 21.2669,1.2841 c 0.59959,-0.22796 1.55403,-0.915 2.12098,-1.52675 1.03083,-1.11228 1.03083,-1.11228 1.03083,0.20511 0,1.03822 0.17747,1.31738 0.83749,1.31738 0.81755,0 0.83749,-0.27916 0.83749,-11.72488 0,-11.44572 -0.0199,-11.72488 -0.83749,-11.72488 -0.78976,0 -0.83749,0.27916 -0.83749,4.89772 0,4.89772 0,4.89772 -1.37244,3.5675 -1.76674,-1.71239 -3.56204,-2.07354 -5.88938,-1.18472 -3.09773,1.18303 -4.67409,4.33749 -4.3908,8.78645 0.21165,3.32388 1.40365,5.6417 3.5241,6.85249 1.78305,1.01814 3.28151,1.1791 4.97671,0.53458 z m -2.92001,-1.15348 c -4.34241,-1.0032 -5.35732,-10.48264 -1.41775,-13.24202 2.443,-1.71114 6.18916,-0.11454 7.05623,3.00733 1.60474,5.7778 -1.39122,11.21592 -5.63848,10.23469 z m 22.74815,0.43552 c 5.11925,-3.79547 4.01774,-14.10428 -1.67073,-15.63603 -4.18643,-1.12729 -7.75923,1.19524 -8.76717,5.69918 -0.97301,4.34787 0.81007,9.05947 3.97022,10.49092 1.73485,0.78583 5.04266,0.50246 6.46768,-0.55407 z m -5.241,-0.59628 c -2.70172,-0.76062 -4.39879,-5.04171 -3.5202,-8.88019 0.27228,-1.18956 0.72266,-2.45413 1.00085,-2.81016 2.08067,-2.66291 5.80438,-2.77295 7.89661,-0.23337 0.96895,1.17613 1.76632,4.58441 1.48218,6.33538 -0.70651,4.35371 -3.41296,6.55863 -6.85944,5.58834 z M 21.57759,180.33944 c 1.29596,-3.34671 1.29596,-3.34671 6.46435,-3.34671 5.1684,0 5.1684,0 6.45441,3.45465 0.87804,2.35873 1.4993,3.45465 1.95837,3.45465 0.3698,0 0.77326,-0.1009 0.89659,-0.22422 0.12332,-0.12332 -1.69042,-5.16397 -4.03054,-11.20145 -5.6441,-14.56173 -4.9205,-14.56163 -10.54824,-0.001 -2.33328,6.03671 -4.13428,11.08387 -4.00223,11.21592 0.73592,0.73592 1.6446,-0.3489 2.80729,-3.35145 z m 2.07351,-5.54513 c 0.16095,-0.40304 1.15149,-3.04114 2.2012,-5.86244 1.0497,-2.8213 2.04059,-5.12964 2.20196,-5.12964 0.16137,0 1.15226,2.30834 2.20197,5.12964 1.0497,2.8213 2.04024,5.4594 2.20119,5.86244 0.26826,0.67174 -0.0987,0.73281 -4.40316,0.73281 -4.30451,0 -4.67142,-0.0611 -4.40316,-0.73281 z m 18.22177,-2.61716 c 0,-11.44572 -0.0199,-11.72488 -0.83749,-11.72488 -0.81707,0 -0.83749,0.27916 -0.83749,11.44572 0,6.29514 0.12562,11.57134 0.27916,11.72488 0.15354,0.15354 0.53041,0.27916 0.83749,0.27916 0.45198,0 0.55833,-2.23331 0.55833,-11.72488 z m 50.57683,6.84547 c 0.11797,-4.66 0.11797,-4.66 4.68804,-4.81643 3.79631,-0.12994 4.76453,-0.30161 5.7186,-1.01392 2.90494,-2.16885 3.73479,-5.07759 2.34499,-8.21948 -1.29295,-2.92292 -3.24171,-3.68303 -9.44247,-3.68303 -4.89274,0 -4.89274,0 -4.89274,11.33684 0,10.57131 0.0495,11.32736 0.7328,11.19643 0.63689,-0.12202 0.74825,-0.75039 0.85078,-4.80041 z m 0.0914,-11.20525 c 0,-4.85263 0,-4.85263 4.08277,-4.85106 3.30788,0.001 4.33674,0.15642 5.42089,0.81746 2.52424,1.53913 2.78604,5.73644 0.48773,7.81931 -0.70858,0.64215 -1.68748,0.809 -5.42793,0.92518 -4.56346,0.14173 -4.56346,0.14173 -4.56346,-4.71089 z m 19.68105,7.91912 c 0,-7.88638 -0.0286,-8.16554 -0.83749,-8.16554 -0.80886,0 -0.83749,0.27916 -0.83749,8.16554 0,7.88638 0.0286,8.16554 0.83749,8.16554 0.80886,0 0.83749,-0.27916 0.83749,-8.16554 z m 7.53742,2.91777 c 0,-5.8022 0.42287,-7.43578 2.30883,-8.91928 1.46176,-1.14981 3.93644,-1.20048 5.28689,-0.10825 0.94528,0.76453 0.99774,1.08982 1.19794,7.42806 0.18582,5.88275 0.29182,6.64427 0.94218,6.76858 0.67262,0.12856 0.73281,-0.39726 0.73281,-6.40199 0,-7.38571 -0.29933,-8.46343 -2.662,-9.5846 -2.39169,-1.13493 -4.53905,-0.71393 -6.6551,1.30476 -1.15155,1.09857 -1.15155,1.09857 -1.15155,-0.26672 0,-1.07475 -0.15594,-1.33532 -0.7328,-1.22447 -0.66284,0.12737 -0.74366,0.90991 -0.84653,8.19625 -0.11073,7.84245 -0.0914,8.05543 0.7328,8.05543 0.80451,0 0.84653,-0.26048 0.84653,-5.24777 z m 22.19353,4.43556 c 0,-0.63526 -0.34003,-0.84053 -1.56067,-0.94218 -2.27241,-0.18924 -2.61323,-1.17278 -2.62062,-7.5627 -0.006,-5.33901 -0.006,-5.33901 2.08756,-5.33901 1.81456,0 2.09373,-0.11167 2.09373,-0.83749 0,-0.72583 -0.27917,-0.83749 -2.09373,-0.83749 -2.09373,0 -2.09373,0 -2.09373,-2.51248 0,-2.23331 -0.0931,-2.51247 -0.83749,-2.51247 -0.74444,0 -0.83749,0.27916 -0.83749,2.51247 0,2.51248 0,2.51248 -1.46561,2.51248 -1.18645,0 -1.46561,0.15952 -1.46561,0.83749 0,0.67797 0.27916,0.83749 1.46561,0.83749 1.46561,0 1.46561,0 1.46561,5.38121 0,6.27817 0.41463,7.87337 2.25467,8.67425 1.99301,0.86746 3.60777,0.77277 3.60777,-0.21157 z m -29.3122,-20.7532 c 0,-1.34929 -0.0997,-1.46561 -1.25624,-1.46561 -1.15654,0 -1.25624,0.11632 -1.25624,1.46561 0,1.3493 0.0997,1.46561 1.25624,1.46561 1.15653,0 1.25624,-0.11631 1.25624,-1.46561 z M 90.57299,144.87807 c 1.81882,-1.16713 2.61149,-1.40122 5.18496,-1.53117 2.90041,-0.14647 3.17976,-0.0756 6.17199,1.56668 3.42166,1.87791 4.28365,2.03369 6.08857,1.10033 3.29243,-1.70258 3.98225,-5.38201 1.51397,-8.07537 -1.28387,-1.40095 -1.64433,-1.56215 -3.45465,-1.54498 -1.5632,0.0148 -2.52843,0.34301 -4.25951,1.4483 -1.81577,1.15936 -2.75393,1.46197 -4.9699,1.60307 -2.55402,0.16263 -2.95692,0.0581 -6.19733,-1.60784 -2.83232,-1.45613 -3.7225,-1.73182 -4.87063,-1.50844 -4.04725,0.78742 -5.58328,5.50954 -2.77582,8.5335 2.01579,2.17124 4.20241,2.17584 7.56835,0.0159 z m 38.23149,-0.0869 c 1.19401,-1.19401 1.42374,-1.72543 1.42374,-3.2935 0,-2.64458 -1.04663,-3.73922 -5.71964,-5.98205 -6.16509,-2.95895 -11.02753,-8.12025 -13.33007,-14.14937 -1.95693,-5.12414 -7.52985,-5.91303 -9.69513,-1.3724 -1.41543,2.96819 0.15353,5.59527 4.34958,7.28294 5.70809,2.29582 10.6887,7.14151 13.74655,13.37415 2.23151,4.54837 3.31419,5.56396 5.93148,5.56396 1.56806,0 2.09948,-0.22972 3.29349,-1.42373 z M 89.20837,126.01043 c 0.89124,-0.60094 1.70989,-1.70532 2.26034,-3.04926 1.29883,-3.17112 3.28377,-6.45701 5.2284,-8.65513 2.09554,-2.3687 6.93828,-5.67042 9.40653,-6.41326 0.98403,-0.29615 2.62193,-1.1218 3.63977,-1.83477 3.35508,-2.35017 7.98121,-2.40033 11.60439,-0.12582 2.57898,1.61899 3.94746,1.90588 5.66599,1.18784 2.30068,-0.96129 3.33128,-2.62645 3.10413,-5.01539 -0.25443,-2.675831 -1.59446,-4.057321 -4.22292,-4.353591 -1.63197,-0.18394 -2.21925,-0.0256 -3.92269,1.0574 -4.18229,2.659091 -7.70375,2.745501 -12.08301,0.29648 -4.938,-2.76149 -6.81301,-1.97657 -9.75142,4.082181 -1.27817,2.63548 -2.9093,5.21438 -4.22335,6.67734 -2.52669,2.81301 -6.83338,5.78366 -10.22397,7.05224 -2.80349,1.04892 -4.03281,2.61575 -4.03528,5.14319 -0.002,2.03761 0.55502,3.05869 2.22357,4.07608 1.76212,1.07444 3.61459,1.03081 5.32952,-0.12553 z m 39.28478,-0.11839 c 0.69323,-0.58331 1.47604,-1.71392 1.73959,-2.51247 0.62876,-1.90515 -0.0395,-3.98574 -1.73959,-5.41629 -2.36353,-1.98878 -6.34646,-1.10394 -7.67995,1.70617 -0.80071,1.68738 -0.80182,2.8267 -0.004,4.50717 1.34203,2.82812 5.30942,3.71379 7.68434,1.71542 z M 90.11062,106.1266 c 3.21686,-3.21686 1.06858,-8.600401 -3.43196,-8.600401 -5.22703,0 -7.0978,6.994581 -2.55717,9.560941 1.71963,0.97192 4.50307,0.52552 5.98913,-0.96054 z"
       id="path2"
       inkscape:export-filename="path2.svg"
       inkscape:export-xdpi="96"
       inkscape:export-ydpi="96" /></g></svg>
