<?xml version="1.0" encoding="UTF-8" standalone="no"?>
<!-- Created with Inkscape (http://www.inkscape.org/) -->

<svg
   width="176.19968mm"
   height="108.97392mm"
   viewBox="0 0 176.19968 108.97392"
   version="1.1"
   id="svg1"
   xml:space="preserve"
   xmlns:inkscape="http://www.inkscape.org/namespaces/inkscape"
   xmlns:sodipodi="http://sodipodi.sourceforge.net/DTD/sodipodi-0.dtd"
   xmlns:xlink="http://www.w3.org/1999/xlink"
   xmlns="http://www.w3.org/2000/svg"
   xmlns:svg="http://www.w3.org/2000/svg"><sodipodi:namedview
     id="namedview1"
     pagecolor="#ffffff"
     bordercolor="#000000"
     borderopacity="0.25"
     inkscape:showpageshadow="2"
     inkscape:pageopacity="0.0"
     inkscape:pagecheckerboard="0"
     inkscape:deskcolor="#d1d1d1"
     inkscape:document-units="mm"
     inkscape:export-bgcolor="#000000ff" /><defs
     id="defs1"><linearGradient
       id="swatch2"
       inkscape:swatch="solid"><stop
         style="stop-color:#ffffff;stop-opacity:1;"
         offset="0"
         id="stop2" /></linearGradient><linearGradient
       inkscape:collect="always"
       xlink:href="#swatch2"
       id="linearGradient2"
       x1="17.879492"
       y1="177.77701"
       x2="193.86852"
       y2="177.77701"
       gradientUnits="userSpaceOnUse" /></defs><g
     inkscape:label="Capa 1"
     inkscape:groupmode="layer"
     id="layer1"
     transform="translate(-17.774174,-123.28814)"><path
       style="opacity:1;mix-blend-mode:lighten;fill:url(#linearGradient2);fill-opacity:1;stroke:#ffffff;stroke-width:0.264583;stroke-dasharray:none;stroke-opacity:1"
       d="m 29.871145,231.80878 c -3.598179,-1.47083 -2.591947,-7.52182 1.250819,-7.52182 2.117128,0 3.325365,1.14309 3.325365,3.14607 0,1.46817 0,1.46817 -2.397008,1.46817 -2.19577,0 -2.340745,0.0563 -1.726843,0.67016 0.525082,0.52509 0.856411,0.57049 1.530478,0.20974 2.053242,-1.09886 3.447572,-0.10181 1.859289,1.32953 -0.99985,0.90105 -2.623833,1.19614 -3.8421,0.69815 z m 6.358958,-0.16763 c -1.662985,-0.73442 -1.935364,-2.32047 -0.398503,-2.32047 0.530638,0 1.174866,0.21007 1.431618,0.46682 0.256752,0.25675 0.679749,0.33522 0.939993,0.17438 0.281118,-0.17374 -0.257391,-0.66117 -1.326748,-1.2009 -3.000384,-1.51438 -2.488054,-4.47402 0.774478,-4.47402 1.923485,0 3.088532,0.65873 3.088532,1.74628 0,0.78917 -0.169417,0.85071 -1.677905,0.6095 -2.070063,-0.33102 -2.146,-0.0458 -0.203841,0.76572 0.810735,0.33875 1.585932,0.90743 1.722659,1.26374 0.203087,0.52923 0.397312,0.45876 1.060971,-0.38494 0.457458,-0.58157 1.463984,-1.15501 2.303859,-1.31257 0.989413,-0.18562 1.308617,-0.39283 0.948248,-0.61555 -0.298781,-0.18465 -0.871336,-0.16014 -1.272346,0.0545 -1.188376,0.636 -2.042692,0.45449 -2.042692,-0.43398 0,-1.03763 1.19523,-1.69267 3.088533,-1.69267 2.258019,0 2.784135,0.82767 2.784135,4.37991 0,3.06156 0,3.06156 -1.971116,3.28373 -2.193067,0.24719 -3.798722,-0.19595 -4.164588,-1.14939 -0.202519,-0.52775 -0.35325,-0.49778 -0.933072,0.18556 -0.951958,1.12191 -2.530312,1.37065 -4.152215,0.65438 z m 23.742656,0.15112 c -1.339589,-0.5014 -2.188911,-2.35685 -1.963328,-4.28912 0.156106,-1.33717 0.105649,-1.40102 -0.89683,-1.135 -0.951689,0.25255 -1.084071,0.54091 -1.27198,2.77077 -0.197446,2.34301 -0.277347,2.49666 -1.363298,2.62161 -1.15356,0.13273 -1.15356,0.13273 -1.15356,-2.64959 0,-2.78232 0,-2.78232 -1.15356,-2.64959 -1.105533,0.1272 -1.158759,0.24188 -1.278445,2.75446 -0.117625,2.4693 -0.184691,2.62173 -1.15356,2.62173 -1.01542,0 -1.028675,-0.0485 -1.028675,-3.76062 0,-3.76061 0,-3.76061 4.603951,-3.75643 3.677719,0.003 4.675653,0.13232 4.960356,0.64105 0.317278,0.56695 0.416146,0.56488 0.900603,-0.0189 1.829302,-2.20417 5.47519,-0.15782 5.47519,3.0731 0,3.20216 -1.967243,4.79068 -4.676864,3.77649 z m 2.496035,-3.9006 c -0.08513,-0.87004 -0.383343,-1.33947 -0.914978,-1.4403 -1.457172,-0.27635 -2.046718,1.86162 -0.844776,3.06356 0.957999,0.958 1.925035,0.066 1.759754,-1.62326 z m 10.989832,3.83378 c -2.08539,-1.07762 -1.503869,-3.72195 1.001244,-4.55293 1.127463,-0.37399 1.792006,-0.76596 1.47676,-0.87104 -0.315245,-0.10508 -1.093506,0.005 -1.729468,0.24539 -1.640591,0.61926 -2.464974,-0.21959 -1.38672,-1.41104 0.538357,-0.59488 1.294102,-0.84887 2.525828,-0.84887 2.562876,0 3.146072,0.84204 3.146072,4.5424 0,3.00061 -0.0029,3.00819 -1.15356,3.0139 -0.634458,0.003 -1.531088,0.0999 -1.992512,0.21492 -0.461424,0.11505 -1.310864,-0.0347 -1.887644,-0.33273 z m 7.745749,0.10925 c -3.294857,-1.24609 -2.574177,-7.54774 0.863186,-7.54774 1.344257,0 1.458497,-0.0996 1.458497,-1.27159 0,-1.43277 0.928428,-2.04134 1.892985,-1.24083 0.82878,0.68782 0.9188,9.5794 0.09953,9.83066 -1.319878,0.40479 -3.538604,0.52282 -4.314195,0.2295 z m 2.238234,-3.94646 c -0.09489,-0.97241 -0.334866,-1.29416 -0.965242,-1.29416 -0.999501,0 -1.406522,1.99974 -0.603869,2.96687 0.771096,0.92912 1.723892,-0.0866 1.569111,-1.67271 z m 5.125432,3.84011 c -3.481555,-1.79549 -2.373907,-7.44139 1.4599,-7.44139 2.394103,0 3.35581,1.0912 3.35581,3.80768 0,3.08962 -2.383455,4.88807 -4.81571,3.63371 z m 2.425142,-3.84011 c -0.09489,-0.97241 -0.334866,-1.29416 -0.965242,-1.29416 -0.999501,0 -1.406522,1.99974 -0.60387,2.96687 0.771097,0.92912 1.723893,-0.0866 1.569112,-1.67271 z m 23.703447,3.94527 c -1.52354,-0.61369 -2.36512,-2.30445 -2.10656,-4.23215 0.61514,-4.58626 6.39211,-4.67793 6.71634,-0.10657 0.0823,1.16041 0.0181,1.20051 -2.11738,1.32346 -2.19539,0.1264 -2.83014,0.5912 -1.50289,1.10051 0.38465,0.14761 0.89431,0.0734 1.13259,-0.16485 0.60884,-0.60885 2.36413,-0.54098 2.35639,0.0911 -0.0206,1.68165 -2.50343,2.78405 -4.47849,1.98849 z m 6.8842,0.12431 c -1.58574,-0.17244 -1.58574,-0.17244 -1.46817,-5.28495 0.11024,-4.79366 0.1699,-5.1125 0.95653,-5.1125 0.63989,0 0.87014,0.32346 0.9704,1.36329 0.12034,1.24812 0.25324,1.3633 1.57303,1.3633 2.11769,0 3.1195,1.1975 3.1195,3.72882 0,3.27491 -1.40426,4.34953 -5.15129,3.94204 z m 3.05391,-3.49315 c 0,-2.01588 -1.26814,-2.79083 -2.08112,-1.27176 -0.45307,0.84657 -0.17497,2.13271 0.56828,2.62812 0.59227,0.39476 1.51284,-0.43059 1.51284,-1.35636 z m 14.68167,3.2527 c -1.57408,-0.79727 -1.88008,-7.57655 -0.33208,-7.357 0.85185,0.12081 0.97454,0.399 1.07765,2.44345 0.21978,4.35783 1.62843,4.41096 1.85626,0.07 0.11026,-2.10088 0.23445,-2.39272 1.06859,-2.51118 0.91925,-0.13056 0.94382,-0.035 0.94382,3.67041 0,3.80447 0,3.80447 -1.22412,3.80447 -0.67327,0 -1.47552,0.0925 -1.78278,0.20549 -0.30726,0.11302 -1.03056,-0.0335 -1.60734,-0.32566 z m 21.39329,-0.19509 c -1.85841,-0.92838 -2.29959,-2.62108 -0.68315,-2.62108 0.57921,0 1.16978,0.18877 1.31236,0.41948 0.14259,0.23071 0.82825,0.41947 1.52369,0.41947 1.919,0 1.39739,-1.29496 -0.85706,-2.12775 -2.94611,-1.08828 -3.87434,-3.2638 -2.13479,-5.00334 1.7246,-1.7246 6.91266,-0.54417 6.16552,1.40283 -0.29148,0.75958 -1.76608,0.94561 -2.1805,0.27507 -0.14259,-0.23071 -0.72002,-0.41947 -1.28318,-0.41947 -1.73115,0 -1.14794,1.09504 1.07528,2.01896 2.46237,1.02332 3.27662,2.43453 2.49435,4.32308 -0.79117,1.91006 -3.11348,2.47124 -5.43252,1.31275 z m 11.98637,0.36933 c -0.44421,-0.17952 -0.95004,-0.68985 -1.12407,-1.13406 -0.28961,-0.73922 -0.31892,-0.72768 -0.34591,0.13616 -0.0247,0.79151 -0.26404,0.94383 -1.48289,0.94383 -1.76145,0 -2.32188,-0.84312 -2.32188,-3.4931 0,-1.27556 -0.20009,-1.94712 -0.62921,-2.11179 -0.79029,-0.30326 -0.81784,-1.37589 -0.0468,-1.81998 0.32035,-0.18449 0.65262,-0.71298 0.73837,-1.1744 0.2513,-1.35226 2.03498,-1.37783 2.03498,-0.0292 0,0.79821 0.21767,1.07786 0.83896,1.07786 0.61523,0 0.83895,0.27965 0.83895,1.04869 0,0.76904 -0.22372,1.04869 -0.83895,1.04869 -0.69913,0 -0.83896,0.27965 -0.83896,1.67791 0,1.98475 1.22282,2.38116 2.01075,0.65183 0.30066,-0.65987 1.06833,-1.20608 2.15098,-1.53045 0.92591,-0.2774 1.58381,-0.66562 1.46201,-0.8627 -0.1218,-0.19708 -0.57512,-0.16906 -1.00738,0.0623 -1.15593,0.61864 -2.09022,0.5134 -2.39056,-0.26926 -0.38677,-1.00793 0.99136,-1.82699 3.07405,-1.82699 2.44053,0 3.08968,0.98908 3.08968,4.70758 0,2.843 0,2.843 -1.3633,2.84872 -0.74981,0.003 -1.74083,0.0888 -2.20225,0.19024 -0.46142,0.10148 -1.2024,0.0376 -1.64661,-0.14189 z m 7.73728,-0.16326 c -2.13032,-1.09864 -2.70127,-4.78549 -1.02749,-6.63499 1.41297,-1.56132 5.21399,-0.74164 5.21399,1.12437 0,0.85045 -1.14191,1.205 -1.88764,0.58609 -0.94329,-0.78286 -1.88765,-0.18558 -1.88765,1.1939 0,1.57288 0.93303,2.43022 1.67362,1.53787 0.84389,-1.01683 2.10167,-0.79962 2.10167,0.36294 0,1.76245 -2.33672,2.78378 -4.1865,1.82982 z M 19.765657,226.80382 c 0,-5.03372 0,-5.03372 1.825048,-5.03372 3.947425,0 5.725526,1.56326 5.725526,5.03372 0,3.55397 -1.611088,5.03372 -5.4805,5.03372 -2.070074,0 -2.070074,0 -2.070074,-5.03372 z m 4.318677,2.41199 c 1.802954,-1.34336 0.745021,-5.34832 -1.412788,-5.34832 -0.721358,0 -0.808507,0.3165 -0.808507,2.93633 0,3.13017 0.511693,3.68579 2.221295,2.41199 z m 41.585833,2.07042 c -0.672363,-1.75215 0.03852,-9.72586 0.8671,-9.72586 0.786885,0 0.846262,0.31891 0.956733,5.13858 0.113426,4.94864 0.0858,5.13859 -0.747249,5.13859 -0.475766,0 -0.960229,-0.24809 -1.076584,-0.55131 z m 3.685654,-4.58728 c 0.11047,-4.81967 0.169847,-5.13858 0.956733,-5.13858 0.786885,0 0.846262,0.31891 0.956733,5.13858 0.11778,5.13859 0.11778,5.13859 -0.956733,5.13859 -1.074513,0 -1.074513,0 -0.956733,-5.13859 z m 24.845306,4.6044 c -0.12516,-0.32616 -0.171507,-1.99109 -0.102994,-3.69983 0.124571,-3.10682 0.124571,-3.10682 2.431691,-3.10682 2.575209,0 3.485736,1.36425 1.258429,1.88551 -0.941418,0.22032 -1.070146,0.50116 -1.258429,2.7455 -0.21147,2.52072 -1.672484,3.88571 -2.328697,2.17564 z m 9.301513,-0.1999 c -0.51481,-1.75927 -1.9391,-8.19734 -1.9391,-8.76512 0,-0.43249 0.35187,-0.58322 1.14672,-0.49122 1.02568,0.11872 1.19611,0.37625 1.61469,2.43985 0.48967,2.41406 0.75307,2.29031 1.3392,-0.62921 0.58116,-2.89483 2.37765,-2.66156 3.06227,0.39762 0.5961,2.6637 0.84475,2.64378 1.43935,-0.1153 0.49408,-2.29268 2.63248,-3.10314 2.40508,-0.91154 -0.49374,4.75859 -1.89734,8.80901 -3.0526,8.80901 -1.09256,0 -1.20989,-0.17428 -1.76499,-2.62173 -0.59463,-2.62173 -0.59463,-2.62173 -1.13963,0 -0.51194,2.46268 -0.61632,2.62173 -1.72059,2.62173 -0.75812,0 -1.25187,-0.26069 -1.3904,-0.73409 z m 27.51555,-4.16559 c 0.11843,-4.95802 0.11843,-4.95802 3.36937,-5.08053 3.2345,-0.1219 3.25094,-0.11712 3.25094,0.94382 0,0.99995 -0.13057,1.06634 -2.09738,1.06634 -1.95755,0 -2.09738,0.0699 -2.09738,1.04869 0,0.96324 0.15381,1.04869 1.88764,1.04869 1.57243,0 1.88765,0.1326 1.88765,0.79407 0,0.90057 -0.78089,1.30331 -2.52705,1.30331 -1.11188,0 -1.20947,0.13091 -1.32899,1.78277 -0.11582,1.60075 -0.24816,1.79646 -1.29611,1.91682 -1.16713,0.13404 -1.16713,0.13404 -1.04869,-4.82398 z m 14.26284,-0.23891 c 0.11048,-4.81967 0.16985,-5.13858 0.95674,-5.13858 0.78688,0 0.84626,0.31891 0.95673,5.13858 0.11778,5.13859 0.11778,5.13859 -0.95673,5.13859 -1.07452,0 -1.07452,0 -0.95674,-5.13859 z m 3.44699,3.21975 c -0.66249,-4.41779 0.2516,-8.97391 1.6897,-8.42206 1.19726,0.45943 0.7469,10.08665 -0.48004,10.26134 -0.79521,0.11322 -0.95279,-0.12638 -1.20966,-1.83928 z m 36.82274,-3.21975 c 0.11047,-4.81967 0.16985,-5.13858 0.95673,-5.13858 0.70869,0 0.87152,0.34956 1.04869,2.25126 0.20957,2.24942 0.2104,2.25054 1.00884,1.3633 0.97526,-1.08372 2.76645,-1.20086 2.76645,-0.18092 0,0.38888 -0.39529,1.12781 -0.87842,1.64208 -0.87841,0.93503 -0.87841,0.93503 0.20974,2.5364 0.59849,0.88075 1.08816,1.84069 1.08816,2.13321 0,0.97013 -2.0408,0.58867 -2.76517,-0.51686 -0.37792,-0.57678 -0.85419,-1.04869 -1.05836,-1.04869 -0.20418,0 -0.37124,0.47191 -0.37124,1.04869 0,0.84236 -0.20887,1.0487 -1.0616,1.0487 -1.0616,0 -1.0616,0 -0.94382,-5.13859 z m -33.65006,0.33225 c 0,-1.05403 0.0391,-1.06633 3.38498,-1.06633 3.27042,0 3.38045,0.0319 3.25094,0.94382 -0.22318,1.57145 -6.63592,1.68984 -6.63592,0.12251 z M 50.177691,210.69104 c -6.572767,-2.92128 -5.63683,-15.96971 1.237984,-17.25943 1.832825,-0.34384 3.688776,0.0735 5.034462,1.13198 1.068389,0.8404 1.068389,0.8404 1.068389,-3.59455 0,-4.43495 0,-4.43495 1.264862,-4.43495 1.264862,0 1.264862,0 1.15356,12.05995 -0.111302,12.05994 -0.111302,12.05994 -1.085717,12.19799 -0.68836,0.0975 -1.03838,-0.10654 -1.192303,-0.69515 -0.211944,-0.81047 -0.258476,-0.80566 -1.705848,0.17656 -1.67272,1.13514 -3.812806,1.28988 -5.775389,0.4176 z m 5.619704,-3.40773 c 2.331883,-2.65586 2.250827,-7.71913 -0.162202,-10.13216 -3.283721,-3.28372 -7.36163,-0.39052 -7.335933,5.2047 0.02606,5.67469 4.348215,8.51503 7.498135,4.92746 z m 11.796924,3.26515 c -5.678533,-2.85299 -5.57151,-13.90058 0.159878,-16.50346 6.194724,-2.81331 11.880114,2.90014 10.369728,10.42091 -1.133833,5.64577 -5.908833,8.40411 -10.529606,6.08255 z m 5.728105,-2.2016 c 0.45086,0 2.017525,-3.00704 2.267437,-4.35209 1.357601,-7.30674 -5.96874,-11.54412 -8.879037,-5.13541 -2.207023,4.86004 1.059801,11.05706 5.202519,9.86894 0.731503,-0.20979 1.36559,-0.38144 1.409081,-0.38144 z m 73.754296,2.34801 c -2.02255,-0.89277 -2.86642,-2.1316 -2.86642,-4.20799 0,-3.52085 1.70023,-4.86937 7.60562,-6.03228 3.47243,-0.68381 3.64513,-0.76966 3.54365,-1.76161 -0.28845,-2.81978 -4.695,-3.95392 -7.19363,-1.85146 -1.49709,1.25972 -3.1866,1.25425 -3.1866,-0.0103 0,-2.65428 7.474,-4.54951 10.39464,-2.63583 2.38924,1.56549 2.60912,2.38523 2.60912,9.72712 0,6.72414 -0.001,6.73163 -0.97441,6.86953 -0.67708,0.0959 -1.03824,-0.10602 -1.18359,-0.66182 -0.2014,-0.77017 -0.28083,-0.76361 -2.13788,0.17655 -2.15659,1.0918 -4.6806,1.23999 -6.6105,0.38811 z m 9.85769,-7.03216 c 0,-3.26842 -0.0967,-5.84593 -0.21477,-5.72781 -0.11813,0.11813 -0.22846,2.17881 -0.24518,4.57929 -0.0408,5.86146 0.003,7.0911 0.25022,7.0911 0.11535,0 0.20973,-2.67416 0.20973,-5.94258 z m -2.8226,3.5056 c 1.74212,-1.74213 2.236,-5.36401 0.68177,-4.99982 -0.55288,0.12955 -2.07916,0.4511 -3.39174,0.71455 -3.96345,0.79552 -5.65059,2.78763 -4.06645,4.80154 1.42763,1.81494 4.69407,1.56608 6.77642,-0.51627 z m 11.40107,3.54808 c -6.22128,-2.82277 -5.7526,-15.18249 0.64845,-17.10029 1.95056,-0.5844 4.16217,-0.21874 5.62194,0.92951 1.09124,0.85838 1.09124,0.85838 1.09124,-3.57657 0,-4.43495 0,-4.43495 1.26487,-4.43495 1.26486,0 1.26486,0 1.15356,12.05995 -0.11131,12.05994 -0.11131,12.05994 -1.08572,12.19799 -0.70675,0.10014 -1.03863,-0.1075 -1.20819,-0.75588 -0.23377,-0.89394 -0.23377,-0.89394 -1.21414,0.0271 -1.21907,1.14525 -4.44667,1.48137 -6.27201,0.65317 z m 5.27352,-2.88767 c 3.83973,-3.57726 2.06253,-12.06615 -2.52613,-12.06615 -1.81404,0 -3.56706,1.58664 -4.20302,3.8041 -1.76569,6.15661 2.87421,11.85348 6.72915,8.26205 z m 12.58365,3.00898 c -5.82334,-2.4503 -6.12564,-13.78312 -0.44409,-16.64816 7.15867,-3.60991 13.54806,4.81172 9.81556,12.93755 -1.55048,3.37548 -5.99018,5.13337 -9.37147,3.71061 z m 6.15912,-3.53283 c 3.49563,-3.99665 1.38313,-11.5423 -3.23141,-11.5423 -4.24041,0 -6.45647,6.3967 -3.755,10.8389 1.62197,2.66712 4.97371,3.00458 6.98641,0.7034 z M 17.9139,210.50231 c -0.139194,-0.22522 1.697515,-5.47425 4.081576,-11.66451 4.334656,-11.25502 4.334656,-11.25502 5.725273,-11.25502 1.390618,0 1.390618,0 5.522349,10.69665 4.545558,11.768 4.771348,12.71273 2.989229,12.50728 -1.028446,-0.11856 -1.285896,-0.50194 -2.411989,-3.59178 -1.260653,-3.45906 -1.260653,-3.45906 -6.084631,-3.45906 -4.823977,0 -4.823977,0 -6.08463,3.45906 -1.245568,3.41766 -2.81216,4.80409 -3.737177,3.30738 z m 13.597094,-9.14709 c 0,-0.56114 -3.55884,-9.78741 -3.775287,-9.78741 -0.216446,0 -3.775286,9.22627 -3.775286,9.78741 0,0.15401 1.698879,0.28002 3.775286,0.28002 2.076408,0 3.775287,-0.12601 3.775287,-0.28002 z m 8.159702,8.9782 c -0.111923,-0.29166 -0.153189,-5.71864 -0.0917,-12.05994 0.111791,-11.52965 0.111791,-11.52965 1.26535,-11.66238 1.15356,-0.13273 1.15356,-0.13273 1.15356,12.05994 0,12.19268 0,12.19268 -1.061856,12.19268 -0.58402,0 -1.153428,-0.23864 -1.26535,-0.5303 z m 1.382292,-17.19258 c -0.07167,-3.05693 -0.130312,-0.5558 -0.130312,5.55807 0,6.11386 0.05864,8.61499 0.130312,5.55806 0.07167,-3.05694 0.07167,-8.05919 0,-11.11613 z m 49.184691,6.0054 c 0,-11.77319 0,-11.77319 4.97112,-11.77319 8.425711,0 11.489981,2.21837 10.854311,7.85797 -0.46007,4.0818 -2.91046,5.69499 -8.992525,5.92013 -4.289452,0.15878 -4.289452,0.15878 -4.407619,4.83081 -0.118167,4.67202 -0.118167,4.67202 -1.271727,4.80475 -1.15356,0.13273 -1.15356,0.13273 -1.15356,-11.64047 z m 1.364427,-0.16905 c 0.05706,-5.6904 -0.03783,-10.34608 -0.210867,-10.34595 -0.173034,1.3e-4 -0.314607,4.7508 -0.314607,10.55705 0,5.80626 0.09489,10.46194 0.210866,10.34596 0.115977,-0.11598 0.25755,-4.86665 0.314608,-10.55706 z m 10.444204,-1.47107 c 1.82643,-1.63192 1.92333,-4.5614 0.20766,-6.27834 -1.04777,-1.04855 -1.42264,-1.13831 -5.313367,-1.27232 -4.186066,-0.14417 -4.186066,-0.14417 -4.186066,4.29964 0,4.44381 0,4.44381 3.978407,4.44381 3.779166,0 4.045266,-0.0597 5.313366,-1.19279 z m 8.10502,12.84976 c -0.1196,-0.31168 -0.16594,-4.1474 -0.10299,-8.52382 0.11446,-7.95713 0.11446,-7.95713 1.16315,-7.95713 1.57842,0 1.68005,16.6894 0.103,16.91334 -0.52013,0.0739 -1.04355,-0.12072 -1.16316,-0.43239 z m 7.55058,0 c -0.1196,-0.31168 -0.16595,-4.1474 -0.103,-8.52382 0.11447,-7.95713 0.11447,-7.95713 1.08888,-8.09518 0.69444,-0.0984 1.03846,0.10684 1.19731,0.71429 0.22147,0.84689 0.2309,0.84643 1.47272,-0.0717 1.71003,-1.26429 5.24331,-1.28709 6.91657,-0.0446 2.02595,1.50432 2.22016,2.3538 2.22683,9.74025 0.006,6.84435 0.006,6.84435 -1.14737,6.71162 -1.15356,-0.13273 -1.15356,-0.13273 -1.3633,-6.69712 -0.18167,-5.6857 -0.3167,-6.68235 -1.00884,-7.4457 -1.25687,-1.38619 -3.30527,-1.16746 -5.1846,0.55361 -1.56687,1.43493 -1.56687,1.43493 -1.77661,7.4457 -0.20395,5.8448 -0.23585,6.01449 -1.15544,6.14507 -0.52013,0.0739 -1.04355,-0.12072 -1.16315,-0.43239 z m 1.96319,-12.3634 c 0.34673,-0.41778 0.29264,-0.552 -0.22245,-0.552 -0.60117,0 -0.66989,0.72195 -0.58898,6.18727 0.0916,6.18728 0.0916,6.18728 0.22245,0.55201 0.0757,-3.25825 0.32409,-5.86811 0.58898,-6.18728 z m 9.89494,3.32815 c -0.0807,-1.5573 -0.14675,-0.28314 -0.14675,2.83147 0,3.11461 0.066,4.38877 0.14675,2.83146 0.0807,-1.5573 0.0807,-4.10562 0,-5.66293 z m 8.70768,9.14653 c -2.21695,-0.90738 -2.50794,-1.80933 -2.65228,-8.22111 -0.13541,-6.0154 -0.13541,-6.0154 -1.46816,-6.14457 -1.99362,-0.19322 -1.96807,-2.1653 0.0305,-2.358 1.3633,-0.13144 1.3633,-0.13144 1.3633,-2.62173 0,-2.48732 0.001,-2.49028 1.25843,-2.49028 1.25714,0 1.25843,0.003 1.25843,2.49388 0,2.49387 0,2.49387 1.99251,2.62173 1.82469,0.11708 2.00369,0.22501 2.12525,1.28141 0.12934,1.1241 0.0785,1.15356 -1.99252,1.15356 -2.12524,0 -2.12524,0 -2.11906,4.92884 0.007,5.95104 0.38109,6.96955 2.62519,7.15642 1.42079,0.11832 1.56339,0.24267 1.56339,1.3633 0,1.31527 -1.86094,1.70593 -3.98502,0.83655 z m -1.02917,-18.06502 c -0.19021,-3.14145 -0.19021,-3.14145 -0.41947,-0.37329 -0.1261,1.52249 -0.13761,5.67531 -0.0256,9.22848 0.20369,6.46032 0.20369,6.46032 0.41948,0.37329 0.11868,-3.34786 0.13019,-7.50068 0.0256,-9.22848 z m -27.70496,-3.58625 c 0,-1.91296 0,-1.91296 1.57304,-1.78277 1.5269,0.12637 1.57681,0.18247 1.70202,1.91296 0.12899,1.78278 0.12899,1.78278 -1.57304,1.78278 -1.70202,0 -1.70202,0 -1.70202,-1.91297 z m -25.413895,-15.8599 c -2.122732,-0.96018 -3.110495,-2.57611 -3.110495,-5.08859 0,-4.92406 4.782896,-7.17194 9.153605,-4.30205 4.01231,2.63455 7.859577,2.64919 11.827075,0.045 4.56389,-2.99565 9.50241,-0.53801 9.13468,4.54585 -0.36872,5.09745 -4.86134,6.8458 -9.50447,3.69876 -3.34442,-2.26679 -7.445467,-2.27143 -11.069945,-0.0125 -2.54581,1.58665 -4.59866,1.94214 -6.43045,1.11355 z m 5.301775,-1.86575 c 4.458067,-2.82477 7.703985,-2.94407 12.42678,-0.45676 4.46173,2.34982 6.62395,2.01684 7.98072,-1.22902 1.82837,-4.3741 -3.1232,-7.56365 -7.32289,-4.71703 -3.823722,2.59178 -7.891236,2.66175 -12.503137,0.21508 -4.613598,-2.44756 -7.945052,-1.20435 -7.945052,2.96489 0,3.94363 3.682424,5.55533 7.363579,3.22284 z m 32.77604,1.1709 c -0.79699,-0.48591 -1.65942,-1.5128 -2.02436,-2.41042 -3.16708,-7.78973 -7.3707,-12.28859 -14.60516,-15.63092 -5.662977,-2.6163 -7.086835,-7.26058 -3.09698,-10.1016 3.58733,-2.55441 6.70863,-1.20834 9.09755,3.92334 3.45351,7.41855 7.8532,11.55343 15.67872,14.73505 3.9311,1.59828 4.41566,7.80598 0.757,9.69795 -1.70627,0.88234 -4.15728,0.79227 -5.80677,-0.2134 z m 6.18025,-1.27994 c 2.86625,-2.86626 1.55954,-5.92329 -3.55672,-8.32085 -6.56901,-3.07834 -10.68015,-7.16532 -13.84181,-13.76049 -1.91388,-3.99229 -3.11072,-5.15435 -5.30497,-5.15078 -3.04944,0.005 -5.32174,3.69811 -3.99157,6.48749 0.55594,1.16583 1.39227,1.77091 4.58012,3.3137 6.63821,3.21262 10.66518,7.27805 13.81573,13.94769 2.3893,5.05809 5.44279,6.33966 8.29922,3.48324 z M 84.121059,153.40853 c -1.782276,-0.72101 -3.111859,-2.86689 -3.111859,-5.0224 0,-2.80758 0.980143,-3.84903 5.794163,-6.15658 5.752084,-2.75721 10.059021,-7.05623 12.767703,-12.74424 2.414594,-5.07043 3.055574,-5.66293 6.126404,-5.66293 1.86948,0 2.72117,0.23626 4.04586,1.12229 3.70397,2.47745 7.10578,2.51172 11.39197,0.11474 3.99189,-2.23239 7.12955,-1.77043 8.77907,1.29254 2.48157,4.60799 -2.42109,9.76303 -6.99392,7.35396 -0.90284,-0.47563 -2.38788,-1.25774 -3.30009,-1.73801 -1.05751,-0.55677 -2.47314,-0.88054 -3.90627,-0.89342 -2.1707,-0.0195 -3.14951,0.3177 -7.43893,2.56272 -0.80749,0.42263 -2.78952,1.39724 -4.4045,2.1658 -4.627227,2.20205 -8.731751,6.55203 -11.464013,12.14956 -2.69915,5.52969 -4.755751,6.88394 -8.285588,5.45597 z m 4.36951,-1.02597 c 0.631159,-0.32639 1.359938,-1.03425 1.619507,-1.57304 0.25957,-0.53878 1.186557,-2.48972 2.059972,-4.33542 2.107944,-4.4545 7.041484,-9.53747 11.071392,-11.40674 3.51295,-1.62948 5.22512,-2.47677 7.53459,-3.72859 1.45923,-0.79095 2.50219,-1.0145 4.73306,-1.0145 2.89579,0 2.98596,0.0317 8.18919,2.88112 4.08888,2.23917 7.92483,-3.94669 4.54395,-7.32757 -1.84843,-1.84843 -3.22423,-1.84569 -6.72857,0.0134 -4.63612,2.45951 -8.12987,2.40611 -12.34702,-0.18873 -3.69871,-2.27584 -6.67713,-1.27969 -8.21516,2.74759 -2.530425,6.62582 -8.733618,12.90795 -14.954745,15.14503 -4.280218,1.53915 -5.518794,5.15823 -2.722363,7.95466 1.586858,1.58686 3.245811,1.85172 5.216197,0.83279 z m 33.465761,0.55639 c -4.30753,-3.38831 -2.25975,-10.03039 3.09242,-10.03039 4.08061,0 6.61424,3.39318 5.39359,7.22341 -1.07474,3.37239 -5.78604,4.93078 -8.48601,2.80698 z m 4.97114,-0.55913 c 4.98693,-2.08368 2.17638,-9.89544 -2.95136,-8.20313 -3.95645,1.30575 -4.23835,6.5439 -0.44111,8.19654 1.65671,0.72104 1.68242,0.72109 3.39247,0.007 z m -43.318318,-18.5625 c -2.763141,-1.36175 -3.597523,-6.01843 -1.520639,-8.48666 2.460126,-2.9237 7.555679,-2.3928 9.143178,0.9526 2.44581,5.15416 -2.510822,10.05326 -7.622539,7.53406 z m 5.821842,-1.78288 c 1.812912,-1.81291 1.734632,-4.22193 -0.200058,-6.15662 -2.183654,-2.18366 -5.336445,-1.64978 -6.783593,1.14869 -2.202688,4.25954 3.583099,8.40848 6.983651,5.00793 z"
       id="path2"
       inkscape:export-filename="path2.svg"
       inkscape:export-xdpi="96"
       inkscape:export-ydpi="96" /></g></svg>
